<svg xmlns="http://www.w3.org/2000/svg" viewBox="0 0 96 96" role="img" aria-label="GabungGambar logo">
  <defs>
    <linearGradient id="g" x1="0%" y1="0%" x2="100%" y2="100%">
      <stop offset="0%" stop-color="#d95d39"/>
      <stop offset="100%" stop-color="#f0a15b"/>
    </linearGradient>
  </defs>
  <rect width="96" height="96" rx="24" fill="url(#g)"/>
  <path d="M27 29h28a8 8 0 0 1 8 8v22a8 8 0 0 1-8 8H27a8 8 0 0 1-8-8V37a8 8 0 0 1 8-8Zm10 11c-5.5 0-10 4.6-10 10.2S31.5 60.4 37 60.4c2.6 0 5.1-1 7-2.8L55 69h12L54 55.9a14 14 0 0 0 3-8.7C57 40.6 52.6 36 47 36H37Zm0 7h10a4 4 0 1 1 0 8H37a4 4 0 0 1 0-8Z" fill="#fff"/>
</svg>
