<svg xmlns="http://www.w3.org/2000/svg" viewBox="0 0 1200 630" role="img" aria-label="GabungGambar social preview">
  <defs>
    <linearGradient id="bg" x1="0%" y1="0%" x2="100%" y2="100%">
      <stop offset="0%" stop-color="#fff7ee"/>
      <stop offset="100%" stop-color="#f5e7d6"/>
    </linearGradient>
    <linearGradient id="accent" x1="0%" y1="0%" x2="100%" y2="100%">
      <stop offset="0%" stop-color="#d95d39"/>
      <stop offset="100%" stop-color="#f0a15b"/>
    </linearGradient>
  </defs>
  <rect width="1200" height="630" fill="url(#bg)"/>
  <circle cx="1080" cy="90" r="140" fill="#1f6d67" opacity="0.12"/>
  <circle cx="120" cy="520" r="160" fill="#d95d39" opacity="0.1"/>
  <rect x="84" y="76" width="120" height="120" rx="28" fill="url(#accent)"/>
  <text x="140" y="154" fill="#fff" font-size="66" font-family="Georgia, serif" text-anchor="middle">G</text>
  <text x="84" y="286" fill="#2b2118" font-size="84" font-family="Georgia, serif">Gabung Gambar ke PDF</text>
  <text x="84" y="360" fill="#66594d" font-size="34" font-family="'Segoe UI', sans-serif">Satukan JPG, PNG, dan WEBP menjadi satu file PDF online gratis.</text>
  <rect x="84" y="418" width="318" height="72" rx="36" fill="#1f6d67"/>
  <text x="243" y="464" fill="#fff" font-size="28" font-family="'Segoe UI', sans-serif" text-anchor="middle">gabunggambar.org</text>
  <rect x="770" y="144" width="278" height="340" rx="34" fill="#fffaf4" stroke="#eadccc"/>
  <rect x="824" y="204" width="170" height="102" rx="22" fill="#ffe0cc"/>
  <rect x="812" y="330" width="194" height="22" rx="11" fill="#e5d4c5"/>
  <rect x="812" y="366" width="160" height="22" rx="11" fill="#ecdccd"/>
  <rect x="812" y="402" width="126" height="22" rx="11" fill="#f2e6db"/>
  <rect x="672" y="122" width="278" height="340" rx="34" fill="#fff" stroke="#eadccc" opacity="0.88"/>
  <rect x="726" y="182" width="170" height="102" rx="22" fill="#dff1ef"/>
  <rect x="714" y="308" width="194" height="22" rx="11" fill="#d7e6e4"/>
  <rect x="714" y="344" width="160" height="22" rx="11" fill="#e1eeec"/>
  <rect x="714" y="380" width="126" height="22" rx="11" fill="#edf5f4"/>
</svg>
